<svg xmlns="http://www.w3.org/2000/svg" xmlns:xlink="http://www.w3.org/1999/xlink" version="1.0" id="katman_1" x="0px" y="0px" viewBox="0 0 841.89 595.28" style="enable-background:new 0 0 841.89 595.28;" xml:space="preserve">
<style type="text/css">
	.st0{fill:#2D88FF;}
</style>
<path class="st0" d="M126.05,361.52h-25.47v-64.18H83.23v-20.9h17.35v-14.87c0-17.62,7.68-30.26,33.08-30.26  c5.37,0,13.81,1.09,13.81,1.09v19.4h-8.86c-9.03,0-12.55,2.78-12.55,10.45v14.18h21.08l-1.88,20.9h-19.2L126.05,361.52z   M184.51,274.77c-0.37,0-0.75,0.01-1.13,0.02c-23.62,0-34.43,17.96-34.43,43.45c0,32.11,14.02,44.97,34.61,44.97  c11.78,0,19.52-5.01,24.23-14.37v12.69h24.23v-85.08h-24.23v13.08C203.95,281.12,195.99,274.87,184.51,274.77z M190.67,294.88  c9.92,0,15.88,6.99,15.88,18.89l0.02,12.15c0,8.02-4.92,17.4-15.9,17.4c-16.88,0-16.43-18.42-16.43-24.56  C174.24,298.12,183.23,294.88,190.67,294.88z M241.8,318.99c0-10.34-0.49-44.17,43.12-44.17c17.5,0,24.81,5.63,24.81,5.63  l-5.87,18.42c0,0-7.3-4.06-16.81-4.06c-12.18,0-19.96,7.14-19.96,19.7l0.01,9.01c0,12.07,7.5,20.12,19.97,20.12  c8.67,0,16.65-4.1,16.65-4.1l5.86,18.03c0,0-6.68,5.66-24.54,5.66C243.52,363.22,241.8,332.87,241.8,318.99L241.8,318.99z   M451.8,274.79c23.62,0,34.6,17.96,34.6,43.45c0,32.11-14.02,44.97-34.61,44.97c-11.78,0-20.49-5.01-25.2-14.37v12.69l-23.92-0.01  V233.9l25.4-2.24v56.72C431.74,278.46,443.78,274.79,451.8,274.79L451.8,274.79z M444.68,294.88c-9.92,0-16.61,6.99-16.61,18.89  l-0.02,12.15c-0.01,8.02,4.63,17.4,16.64,17.4c16.88,0,16.43-18.42,16.43-24.56C461.11,298.12,452.12,294.88,444.68,294.88z   M353.81,274.86c-26.79,0-40.94,14.76-40.94,41v4.87c0,34.05,19.86,42.82,43.54,42.82c23.02,0,33.44-6.51,33.44-6.51l-4.75-17.33  c0,0-12.26,5.27-25.64,5.27c-13.87,0-19.84-3.57-21.37-17.05h53.79v-13.9C391.89,285.59,376.01,274.86,353.81,274.86L353.81,274.86z   M354.46,292.22c9.27,0,15.28,5.75,14.95,19.08h-31.27C338.69,297.26,345.17,292.22,354.46,292.22L354.46,292.22z M537.06,274.75  c-27.51,0-42,15.67-42,43.75c0,38.53,24.97,44.73,42.04,44.73c25,0,41.63-13.6,41.63-44.38  C578.73,286.81,560.03,274.75,537.06,274.75z M536.71,294.95c12.1,0,16.89,9.15,16.89,19.57v8.96c0,12.62-6.71,19.92-16.94,19.92  c-9.57,0-16.29-6.83-16.29-19.92v-8.96C520.37,300.55,528.37,294.95,536.71,294.95z M629.34,274.75c-27.51,0-42,15.67-42,43.75  c0,38.53,24.97,44.73,42.05,44.73c25,0,41.63-13.6,41.63-44.38C671.01,286.81,652.31,274.75,629.34,274.75z M628.99,294.95  c12.1,0,16.89,9.15,16.89,19.57v8.96c0,12.62-6.71,19.92-16.94,19.92c-9.57,0-16.29-6.83-16.29-19.92v-8.96  C612.65,300.55,620.65,294.95,628.99,294.95z M680.61,361.52V233.9l25.48-2.24v85.54l25.28-40.76h26.9l-26.37,42.21l27.38,42.86  H732.3l-26.21-41.62v41.62H680.61z"/>
</svg>